<mxfile host="app.diagrams.net" modified="2021-04-08T07:36:32.988Z" agent="5.0 (Windows NT 6.1; Win64; x64) AppleWebKit/537.36 (KHTML, like Gecko) Chrome/89.0.4389.72 Safari/537.36" etag="zMfd4KtUbMhRTxb52Fvx" version="14.2.9" type="github">
  <diagram id="VscAiyuKWHetD42OGbaB" name="第 1 页">
    <mxGraphModel dx="1660" dy="474" grid="0" gridSize="10" guides="1" tooltips="1" connect="1" arrows="1" fold="1" page="0" pageScale="1" pageWidth="827" pageHeight="1169" math="0" shadow="0">
      <root>
        <mxCell id="0" />
        <mxCell id="1" parent="0" />
        <mxCell id="ewANI7Twm8QuBgvP3Snu-18" value="" style="edgeStyle=orthogonalEdgeStyle;rounded=0;orthogonalLoop=1;jettySize=auto;html=1;endArrow=none;endFill=0;" parent="1" source="ewANI7Twm8QuBgvP3Snu-1" target="ewANI7Twm8QuBgvP3Snu-4" edge="1">
          <mxGeometry relative="1" as="geometry" />
        </mxCell>
        <mxCell id="ewANI7Twm8QuBgvP3Snu-28" style="edgeStyle=orthogonalEdgeStyle;rounded=0;orthogonalLoop=1;jettySize=auto;html=1;endArrow=none;endFill=0;" parent="1" target="ewANI7Twm8QuBgvP3Snu-2" edge="1">
          <mxGeometry relative="1" as="geometry">
            <mxPoint x="320" y="212" as="sourcePoint" />
            <Array as="points">
              <mxPoint x="-141" y="212" />
            </Array>
          </mxGeometry>
        </mxCell>
        <mxCell id="ewANI7Twm8QuBgvP3Snu-29" style="edgeStyle=orthogonalEdgeStyle;rounded=0;orthogonalLoop=1;jettySize=auto;html=1;endArrow=none;endFill=0;" parent="1" target="ewANI7Twm8QuBgvP3Snu-3" edge="1">
          <mxGeometry relative="1" as="geometry">
            <mxPoint x="320" y="210" as="sourcePoint" />
            <Array as="points">
              <mxPoint x="791" y="210" />
            </Array>
          </mxGeometry>
        </mxCell>
        <mxCell id="ewANI7Twm8QuBgvP3Snu-1" value="规则引擎" style="rounded=0;whiteSpace=wrap;html=1;" parent="1" vertex="1">
          <mxGeometry x="260" y="123" width="120" height="60" as="geometry" />
        </mxCell>
        <mxCell id="ewANI7Twm8QuBgvP3Snu-23" value="" style="edgeStyle=none;rounded=0;orthogonalLoop=1;jettySize=auto;html=1;endArrow=none;endFill=0;" parent="1" source="ewANI7Twm8QuBgvP3Snu-2" target="ewANI7Twm8QuBgvP3Snu-8" edge="1">
          <mxGeometry relative="1" as="geometry" />
        </mxCell>
        <mxCell id="ewANI7Twm8QuBgvP3Snu-24" style="edgeStyle=orthogonalEdgeStyle;rounded=0;orthogonalLoop=1;jettySize=auto;html=1;exitX=0.5;exitY=1;exitDx=0;exitDy=0;entryX=0.5;entryY=0;entryDx=0;entryDy=0;endArrow=none;endFill=0;" parent="1" source="ewANI7Twm8QuBgvP3Snu-2" target="ewANI7Twm8QuBgvP3Snu-9" edge="1">
          <mxGeometry relative="1" as="geometry" />
        </mxCell>
        <mxCell id="ewANI7Twm8QuBgvP3Snu-25" style="edgeStyle=orthogonalEdgeStyle;rounded=0;orthogonalLoop=1;jettySize=auto;html=1;entryX=0.5;entryY=0;entryDx=0;entryDy=0;endArrow=none;endFill=0;" parent="1" target="ewANI7Twm8QuBgvP3Snu-7" edge="1">
          <mxGeometry relative="1" as="geometry">
            <mxPoint x="-141" y="337" as="sourcePoint" />
            <Array as="points">
              <mxPoint x="-201" y="337" />
              <mxPoint x="-298" y="337" />
            </Array>
          </mxGeometry>
        </mxCell>
        <mxCell id="ewANI7Twm8QuBgvP3Snu-2" value="规则设置" style="rounded=0;whiteSpace=wrap;html=1;" parent="1" vertex="1">
          <mxGeometry x="-201" y="246" width="120" height="60" as="geometry" />
        </mxCell>
        <mxCell id="ewANI7Twm8QuBgvP3Snu-30" value="" style="edgeStyle=orthogonalEdgeStyle;rounded=0;orthogonalLoop=1;jettySize=auto;html=1;endArrow=none;endFill=0;" parent="1" source="ewANI7Twm8QuBgvP3Snu-3" target="ewANI7Twm8QuBgvP3Snu-16" edge="1">
          <mxGeometry relative="1" as="geometry" />
        </mxCell>
        <mxCell id="ewANI7Twm8QuBgvP3Snu-31" style="edgeStyle=orthogonalEdgeStyle;rounded=0;orthogonalLoop=1;jettySize=auto;html=1;endArrow=none;endFill=0;" parent="1" target="ewANI7Twm8QuBgvP3Snu-15" edge="1">
          <mxGeometry relative="1" as="geometry">
            <mxPoint x="791" y="336" as="sourcePoint" />
          </mxGeometry>
        </mxCell>
        <mxCell id="ewANI7Twm8QuBgvP3Snu-32" style="edgeStyle=orthogonalEdgeStyle;rounded=0;orthogonalLoop=1;jettySize=auto;html=1;endArrow=none;endFill=0;" parent="1" target="ewANI7Twm8QuBgvP3Snu-17" edge="1">
          <mxGeometry relative="1" as="geometry">
            <mxPoint x="791" y="336" as="sourcePoint" />
          </mxGeometry>
        </mxCell>
        <mxCell id="ewANI7Twm8QuBgvP3Snu-3" value="转发动作" style="rounded=0;whiteSpace=wrap;html=1;" parent="1" vertex="1">
          <mxGeometry x="731" y="246" width="120" height="60" as="geometry" />
        </mxCell>
        <mxCell id="ewANI7Twm8QuBgvP3Snu-22" value="" style="edgeStyle=none;rounded=0;orthogonalLoop=1;jettySize=auto;html=1;endArrow=none;endFill=0;" parent="1" source="ewANI7Twm8QuBgvP3Snu-4" target="ewANI7Twm8QuBgvP3Snu-11" edge="1">
          <mxGeometry relative="1" as="geometry" />
        </mxCell>
        <mxCell id="ewANI7Twm8QuBgvP3Snu-26" style="edgeStyle=orthogonalEdgeStyle;rounded=0;orthogonalLoop=1;jettySize=auto;html=1;entryX=0.5;entryY=0;entryDx=0;entryDy=0;endArrow=none;endFill=0;" parent="1" target="ewANI7Twm8QuBgvP3Snu-10" edge="1">
          <mxGeometry relative="1" as="geometry">
            <mxPoint x="320" y="339" as="sourcePoint" />
            <Array as="points">
              <mxPoint x="169" y="339" />
            </Array>
          </mxGeometry>
        </mxCell>
        <mxCell id="ewANI7Twm8QuBgvP3Snu-27" style="edgeStyle=orthogonalEdgeStyle;rounded=0;orthogonalLoop=1;jettySize=auto;html=1;entryX=0.5;entryY=0;entryDx=0;entryDy=0;endArrow=none;endFill=0;" parent="1" target="ewANI7Twm8QuBgvP3Snu-13" edge="1">
          <mxGeometry relative="1" as="geometry">
            <mxPoint x="320" y="340" as="sourcePoint" />
            <Array as="points">
              <mxPoint x="380" y="340" />
              <mxPoint x="474" y="340" />
            </Array>
          </mxGeometry>
        </mxCell>
        <mxCell id="ewANI7Twm8QuBgvP3Snu-4" value="规则处理" style="rounded=0;whiteSpace=wrap;html=1;" parent="1" vertex="1">
          <mxGeometry x="260" y="246" width="120" height="60" as="geometry" />
        </mxCell>
        <mxCell id="ewANI7Twm8QuBgvP3Snu-7" value="创建规则" style="rounded=0;whiteSpace=wrap;html=1;" parent="1" vertex="1">
          <mxGeometry x="-358" y="369" width="120" height="60" as="geometry" />
        </mxCell>
        <mxCell id="ewANI7Twm8QuBgvP3Snu-8" value="编辑规则" style="rounded=0;whiteSpace=wrap;html=1;" parent="1" vertex="1">
          <mxGeometry x="-201" y="369" width="120" height="60" as="geometry" />
        </mxCell>
        <mxCell id="ewANI7Twm8QuBgvP3Snu-9" value="删除规则" style="rounded=0;whiteSpace=wrap;html=1;" parent="1" vertex="1">
          <mxGeometry x="-43" y="369" width="120" height="60" as="geometry" />
        </mxCell>
        <mxCell id="ewANI7Twm8QuBgvP3Snu-10" value="自定义" style="rounded=0;whiteSpace=wrap;html=1;" parent="1" vertex="1">
          <mxGeometry x="109" y="369" width="120" height="60" as="geometry" />
        </mxCell>
        <mxCell id="ewANI7Twm8QuBgvP3Snu-11" value="物模型数据上报" style="rounded=0;whiteSpace=wrap;html=1;" parent="1" vertex="1">
          <mxGeometry x="260" y="369" width="120" height="60" as="geometry" />
        </mxCell>
        <mxCell id="ewANI7Twm8QuBgvP3Snu-13" value="设备状态转发" style="rounded=0;whiteSpace=wrap;html=1;" parent="1" vertex="1">
          <mxGeometry x="414" y="369" width="120" height="60" as="geometry" />
        </mxCell>
        <mxCell id="ewANI7Twm8QuBgvP3Snu-15" value="转发到设备" style="rounded=0;whiteSpace=wrap;html=1;" parent="1" vertex="1">
          <mxGeometry x="568" y="369" width="120" height="60" as="geometry" />
        </mxCell>
        <mxCell id="ewANI7Twm8QuBgvP3Snu-16" value="转发到云存储" style="rounded=0;whiteSpace=wrap;html=1;" parent="1" vertex="1">
          <mxGeometry x="731" y="369" width="120" height="60" as="geometry" />
        </mxCell>
        <mxCell id="ewANI7Twm8QuBgvP3Snu-17" value="转发到服务端" style="rounded=0;whiteSpace=wrap;html=1;" parent="1" vertex="1">
          <mxGeometry x="894" y="369" width="120" height="60" as="geometry" />
        </mxCell>
        <mxCell id="z9-GPWEVaoNOVswkqr81-26" value="" style="group" vertex="1" connectable="0" parent="1">
          <mxGeometry x="-591" y="551" width="477" height="328" as="geometry" />
        </mxCell>
        <mxCell id="z9-GPWEVaoNOVswkqr81-23" value="" style="group" vertex="1" connectable="0" parent="z9-GPWEVaoNOVswkqr81-26">
          <mxGeometry x="367" width="110" height="328" as="geometry" />
        </mxCell>
        <mxCell id="z9-GPWEVaoNOVswkqr81-17" value="创建规则结果（成功\失败）&lt;br&gt;" style="rounded=0;whiteSpace=wrap;html=1;fontSize=15;" vertex="1" parent="z9-GPWEVaoNOVswkqr81-23">
          <mxGeometry y="39" width="110" height="289" as="geometry" />
        </mxCell>
        <mxCell id="z9-GPWEVaoNOVswkqr81-20" value="输出" style="text;html=1;align=center;verticalAlign=middle;resizable=0;points=[];autosize=1;fontSize=18;" vertex="1" parent="z9-GPWEVaoNOVswkqr81-23">
          <mxGeometry x="30" width="46" height="26" as="geometry" />
        </mxCell>
        <mxCell id="z9-GPWEVaoNOVswkqr81-24" value="" style="group" vertex="1" connectable="0" parent="z9-GPWEVaoNOVswkqr81-26">
          <mxGeometry x="181" width="110" height="328" as="geometry" />
        </mxCell>
        <mxCell id="z9-GPWEVaoNOVswkqr81-16" value="&lt;font style=&quot;font-size: 15px&quot;&gt;1.验证基本信息&lt;br&gt;2.验证条件数据&lt;br&gt;3.验证动作数据&lt;br&gt;4.持久化规则相关数&lt;br&gt;&lt;/font&gt;" style="rounded=0;whiteSpace=wrap;html=1;fontSize=15;" vertex="1" parent="z9-GPWEVaoNOVswkqr81-24">
          <mxGeometry y="39" width="110" height="289" as="geometry" />
        </mxCell>
        <mxCell id="z9-GPWEVaoNOVswkqr81-19" value="处理" style="text;html=1;align=center;verticalAlign=middle;resizable=0;points=[];autosize=1;fontSize=18;" vertex="1" parent="z9-GPWEVaoNOVswkqr81-24">
          <mxGeometry x="32" width="46" height="26" as="geometry" />
        </mxCell>
        <mxCell id="z9-GPWEVaoNOVswkqr81-25" value="" style="group" vertex="1" connectable="0" parent="z9-GPWEVaoNOVswkqr81-26">
          <mxGeometry width="110" height="328" as="geometry" />
        </mxCell>
        <mxCell id="z9-GPWEVaoNOVswkqr81-15" value="&lt;font style=&quot;font-size: 15px&quot;&gt;1.规则基本信息&lt;br&gt;2.规则条件数据&lt;br&gt;3.规则动作数据&lt;br&gt;&lt;/font&gt;" style="rounded=0;whiteSpace=wrap;html=1;fontSize=18;" vertex="1" parent="z9-GPWEVaoNOVswkqr81-25">
          <mxGeometry y="39" width="110" height="289" as="geometry" />
        </mxCell>
        <mxCell id="z9-GPWEVaoNOVswkqr81-18" value="输入" style="text;html=1;align=center;verticalAlign=middle;resizable=0;points=[];autosize=1;fontSize=18;" vertex="1" parent="z9-GPWEVaoNOVswkqr81-25">
          <mxGeometry x="32" width="46" height="26" as="geometry" />
        </mxCell>
        <mxCell id="z9-GPWEVaoNOVswkqr81-27" value="" style="endArrow=classic;html=1;fontSize=18;exitX=1;exitY=0.5;exitDx=0;exitDy=0;" edge="1" parent="z9-GPWEVaoNOVswkqr81-26" source="z9-GPWEVaoNOVswkqr81-15" target="z9-GPWEVaoNOVswkqr81-16">
          <mxGeometry width="50" height="50" relative="1" as="geometry">
            <mxPoint x="288" y="174" as="sourcePoint" />
            <mxPoint x="338" y="124" as="targetPoint" />
          </mxGeometry>
        </mxCell>
        <mxCell id="z9-GPWEVaoNOVswkqr81-29" style="edgeStyle=orthogonalEdgeStyle;rounded=0;orthogonalLoop=1;jettySize=auto;html=1;exitX=1;exitY=0.5;exitDx=0;exitDy=0;entryX=0;entryY=0.5;entryDx=0;entryDy=0;endArrow=classic;endFill=1;fontSize=18;" edge="1" parent="z9-GPWEVaoNOVswkqr81-26" source="z9-GPWEVaoNOVswkqr81-16" target="z9-GPWEVaoNOVswkqr81-17">
          <mxGeometry relative="1" as="geometry" />
        </mxCell>
        <mxCell id="z9-GPWEVaoNOVswkqr81-30" value="" style="group" vertex="1" connectable="0" parent="1">
          <mxGeometry x="-598" y="927" width="477" height="328" as="geometry" />
        </mxCell>
        <mxCell id="z9-GPWEVaoNOVswkqr81-31" value="" style="group" vertex="1" connectable="0" parent="z9-GPWEVaoNOVswkqr81-30">
          <mxGeometry x="367" width="110" height="328" as="geometry" />
        </mxCell>
        <mxCell id="z9-GPWEVaoNOVswkqr81-32" value="修改规则结果（成功\失败）" style="rounded=0;whiteSpace=wrap;html=1;fontSize=15;" vertex="1" parent="z9-GPWEVaoNOVswkqr81-31">
          <mxGeometry y="39" width="110" height="289" as="geometry" />
        </mxCell>
        <mxCell id="z9-GPWEVaoNOVswkqr81-33" value="输出" style="text;html=1;align=center;verticalAlign=middle;resizable=0;points=[];autosize=1;fontSize=18;" vertex="1" parent="z9-GPWEVaoNOVswkqr81-31">
          <mxGeometry x="30" width="46" height="26" as="geometry" />
        </mxCell>
        <mxCell id="z9-GPWEVaoNOVswkqr81-34" value="" style="group" vertex="1" connectable="0" parent="z9-GPWEVaoNOVswkqr81-30">
          <mxGeometry x="181" width="110" height="328" as="geometry" />
        </mxCell>
        <mxCell id="z9-GPWEVaoNOVswkqr81-35" value="&lt;font style=&quot;font-size: 15px&quot;&gt;1.验证修改基本信息&lt;br&gt;2.验证修改该条件数据&lt;br&gt;3.验证修改动作数据&lt;br&gt;4.更新修改规则相关数&lt;br&gt;&lt;/font&gt;" style="rounded=0;whiteSpace=wrap;html=1;fontSize=15;" vertex="1" parent="z9-GPWEVaoNOVswkqr81-34">
          <mxGeometry y="39" width="110" height="289" as="geometry" />
        </mxCell>
        <mxCell id="z9-GPWEVaoNOVswkqr81-36" value="处理" style="text;html=1;align=center;verticalAlign=middle;resizable=0;points=[];autosize=1;fontSize=18;" vertex="1" parent="z9-GPWEVaoNOVswkqr81-34">
          <mxGeometry x="32" width="46" height="26" as="geometry" />
        </mxCell>
        <mxCell id="z9-GPWEVaoNOVswkqr81-37" value="" style="group" vertex="1" connectable="0" parent="z9-GPWEVaoNOVswkqr81-30">
          <mxGeometry width="110" height="328" as="geometry" />
        </mxCell>
        <mxCell id="z9-GPWEVaoNOVswkqr81-38" value="&lt;font style=&quot;font-size: 15px&quot;&gt;1.规则基本信息&lt;br&gt;2.规则条件数据&lt;br&gt;3.规则动作数据&lt;br&gt;&lt;/font&gt;" style="rounded=0;whiteSpace=wrap;html=1;fontSize=18;" vertex="1" parent="z9-GPWEVaoNOVswkqr81-37">
          <mxGeometry y="39" width="110" height="289" as="geometry" />
        </mxCell>
        <mxCell id="z9-GPWEVaoNOVswkqr81-39" value="输入" style="text;html=1;align=center;verticalAlign=middle;resizable=0;points=[];autosize=1;fontSize=18;" vertex="1" parent="z9-GPWEVaoNOVswkqr81-37">
          <mxGeometry x="32" width="46" height="26" as="geometry" />
        </mxCell>
        <mxCell id="z9-GPWEVaoNOVswkqr81-40" value="" style="endArrow=classic;html=1;fontSize=18;exitX=1;exitY=0.5;exitDx=0;exitDy=0;" edge="1" parent="z9-GPWEVaoNOVswkqr81-30" source="z9-GPWEVaoNOVswkqr81-38" target="z9-GPWEVaoNOVswkqr81-35">
          <mxGeometry width="50" height="50" relative="1" as="geometry">
            <mxPoint x="288" y="174" as="sourcePoint" />
            <mxPoint x="338" y="124" as="targetPoint" />
          </mxGeometry>
        </mxCell>
        <mxCell id="z9-GPWEVaoNOVswkqr81-41" style="edgeStyle=orthogonalEdgeStyle;rounded=0;orthogonalLoop=1;jettySize=auto;html=1;exitX=1;exitY=0.5;exitDx=0;exitDy=0;entryX=0;entryY=0.5;entryDx=0;entryDy=0;endArrow=classic;endFill=1;fontSize=18;" edge="1" parent="z9-GPWEVaoNOVswkqr81-30" source="z9-GPWEVaoNOVswkqr81-35" target="z9-GPWEVaoNOVswkqr81-32">
          <mxGeometry relative="1" as="geometry" />
        </mxCell>
      </root>
    </mxGraphModel>
  </diagram>
</mxfile>
